<?xml version="1.0" standalone="no"?>
<!DOCTYPE svg PUBLIC "-//W3C//DTD SVG 20010904//EN"
 "http://www.w3.org/TR/2001/REC-SVG-20010904/DTD/svg10.dtd">
<svg version="1.0" xmlns="http://www.w3.org/2000/svg"
 width="807.000000pt" height="807.000000pt" viewBox="0 0 807.000000 807.000000"
 preserveAspectRatio="xMidYMid meet">
<metadata>
Created by potrace 1.11, written by Peter Selinger 2001-2013
</metadata>
<g transform="translate(0.000000,807.000000) scale(0.100000,-0.100000)"
fill="#000000" stroke="none">
<path d="M3855 8059 c-127 -18 -219 -48 -358 -116 -146 -72 -286 -138 -367
-172 -103 -43 -138 -62 -265 -148 -259 -173 -472 -329 -511 -376 -15 -18 -80
-88 -145 -157 -177 -188 -194 -208 -261 -305 -34 -49 -103 -148 -154 -220 -51
-71 -111 -166 -134 -210 -41 -78 -183 -415 -175 -415 3 0 0 -11 -5 -26 -6 -14
-12 -38 -15 -54 -3 -16 -16 -79 -29 -142 -34 -154 -35 -162 -43 -253 -7 -84
-10 -414 -4 -600 2 -60 1 -119 -2 -130 -3 -11 -6 -74 -6 -140 l-1 -120 -35
-50 c-51 -75 -58 -93 -58 -171 -1 -52 5 -85 24 -130 23 -56 24 -68 22 -244 -1
-107 -8 -217 -16 -260 -19 -105 -22 -418 -4 -495 8 -33 13 -93 12 -133 -3 -93
5 -129 59 -256 41 -96 97 -251 113 -313 3 -16 7 -112 9 -215 1 -102 4 -190 7
-195 3 -4 8 -40 11 -78 21 -231 30 -292 77 -500 17 -71 34 -150 40 -175 5 -25
18 -67 28 -95 24 -67 26 -169 5 -245 -10 -36 -13 -64 -8 -69 35 -32 243 -181
357 -256 75 -49 259 -179 407 -288 l271 -198 132 -20 c73 -11 145 -22 160 -24
16 -2 40 -6 55 -9 52 -10 98 -15 202 -21 58 -4 123 -8 145 -10 216 -19 460
-23 600 -11 161 13 179 15 250 20 39 3 86 8 105 11 19 2 53 7 75 10 22 2 72 9
110 14 39 6 93 13 120 16 97 11 121 17 220 55 55 21 174 66 265 100 91 34 174
66 185 71 11 5 39 15 62 23 33 12 84 56 226 198 101 101 252 248 336 328 l152
145 -16 52 c-15 51 -15 53 15 130 17 43 40 98 52 123 35 77 65 162 78 224 6
32 24 86 39 120 15 33 51 135 80 226 149 467 208 628 262 720 36 61 131 273
153 342 14 44 15 239 1 288 -4 14 -8 85 -10 158 -2 73 -9 157 -15 187 -6 30
-9 75 -6 101 4 28 0 71 -10 107 -14 53 -14 84 -4 234 13 202 12 269 -8 338 -7
28 -17 84 -22 125 -4 41 -14 107 -23 145 -8 39 -18 93 -21 120 -3 28 -10 66
-16 85 -24 78 -33 141 -35 260 -3 146 -11 229 -30 314 -7 34 -16 84 -20 111
-3 28 -12 77 -20 110 -8 33 -16 84 -20 114 -7 72 -73 260 -151 437 -78 176
-113 239 -182 329 -30 39 -72 106 -94 150 -96 190 -248 369 -443 520 -49 38
-117 97 -150 130 -33 33 -85 80 -115 105 -30 25 -57 47 -60 50 -3 4 -23 19
-45 35 -22 17 -42 32 -45 35 -29 29 -273 180 -398 247 -281 149 -307 160 -532
232 -162 51 -306 68 -435 50z"/>
</g>
</svg>
